<svg xmlns="http://www.w3.org/2000/svg" viewBox="0 0 1024 1024" width="1024" height="1024" role="img" aria-label="AgentZ">
  <title>AgentZ</title>
  <rect x="100" y="100" width="824" height="824" rx="230.72" fill="#ffe14d"/>
  <circle cx="360.38" cy="322.48" r="23.5" fill="#14161b"/>
  <circle cx="436.19" cy="322.48" r="23.5" fill="#14161b"/>
  <circle cx="512" cy="322.48" r="23.5" fill="#14161b"/>
  <circle cx="587.81" cy="322.48" r="23.5" fill="#14161b"/>
  <circle cx="663.62" cy="322.48" r="23.5" fill="#14161b"/>
  <circle cx="360.38" cy="398.29" r="23.5" fill="#14161b" opacity="0.5"/>
  <circle cx="436.19" cy="398.29" r="23.5" fill="#14161b" opacity="0.5"/>
  <circle cx="512" cy="398.29" r="23.5" fill="#14161b" opacity="0.5"/>
  <circle cx="587.81" cy="398.29" r="23.5" fill="#14161b"/>
  <circle cx="663.62" cy="398.29" r="23.5" fill="#14161b"/>
  <circle cx="512" cy="474.1" r="23.5" fill="#14161b"/>
  <circle cx="587.81" cy="474.1" r="23.5" fill="#14161b"/>
  <circle cx="436.19" cy="549.9" r="23.5" fill="#14161b"/>
  <circle cx="512" cy="549.9" r="23.5" fill="#14161b"/>
  <circle cx="360.38" cy="625.71" r="23.5" fill="#14161b"/>
  <circle cx="436.19" cy="625.71" r="23.5" fill="#14161b"/>
  <circle cx="512" cy="625.71" r="23.5" fill="#14161b" opacity="0.5"/>
  <circle cx="587.81" cy="625.71" r="23.5" fill="#14161b" opacity="0.5"/>
  <circle cx="663.62" cy="625.71" r="23.5" fill="#14161b" opacity="0.5"/>
  <circle cx="360.38" cy="701.52" r="23.5" fill="#14161b"/>
  <circle cx="436.19" cy="701.52" r="23.5" fill="#14161b"/>
  <circle cx="512" cy="701.52" r="23.5" fill="#14161b"/>
  <circle cx="587.81" cy="701.52" r="23.5" fill="#14161b"/>
  <circle cx="663.62" cy="701.52" r="23.5" fill="#14161b"/>
</svg>
